<svg xmlns="http://www.w3.org/2000/svg" version="1.1" xmlns:xlink="http://www.w3.org/1999/xlink" xmlns:svgjs="http://svgjs.dev/svgjs" viewBox="0 0 7.315873638083584 9.349558110760848"><g transform="matrix(1,0,0,1,0.6881663875232373,5.875741723237611)"><rect width="9.349558110760848" height="9.349558110760848" x="-1.7050086238618691" y="-5.875741723237611" fill="#114b1e"></rect><g><path d=" M 0.37855998229980464 0.034500000000000086 C 0.24505998229980464 0.034500000000000086 0.11905998229980463 0.1140000000000001 0.11905998229980463 0.25950000000000006 C 0.11905998229980463 0.45300000000000007 0.32455998229980465 0.5700000000000001 0.5570599822998046 0.6075000000000002 C 0.5075599822998047 0.7035 0.4790599822998046 0.804 0.4790599822998046 0.903 C 0.4790599822998046 1.098 0.6065599822998047 1.2060000000000002 0.7895599822998046 1.2060000000000002 C 0.8600599822998046 1.2060000000000002 0.9320599822998047 1.1865 0.9980599822998046 1.1565 L 0.9425599822998046 1.2975 L 0.9305599822998046 1.2975 C 0.6035599822998046 1.2975 0.16855998229980462 1.5090000000000001 0.16855998229980462 1.77 C 0.16855998229980462 1.8780000000000001 0.25555998229980464 1.953 0.3605599822998046 1.953 C 0.6725599822998046 1.953 0.8480599822998046 1.6365 0.9725599822998047 1.3335000000000001 C 1.0685599822998046 1.3410000000000002 1.1900599822998046 1.374 1.2065599822998048 1.4955 C 1.2080599822998046 1.5060000000000002 1.2095599822998047 1.5105 1.2170599822998047 1.5105 C 1.2275599822998047 1.5105 1.2290599822998047 1.4985 1.2290599822998047 1.4820000000000002 C 1.2290599822998047 1.362 1.1030599822998046 1.3125 0.9860599822998046 1.3005 L 1.0535599822998045 1.1265 C 1.2095599822998047 1.0350000000000001 1.3265599822998047 0.8865000000000001 1.3265599822998047 0.801 C 1.3265599822998047 0.7635000000000001 1.2980599822998047 0.7410000000000001 1.2635599822998047 0.7410000000000001 C 1.1675599822998046 0.7410000000000001 1.0970599822998046 0.9045000000000001 1.0160599822998047 1.1070000000000002 C 0.9470599822998047 1.1445 0.8690599822998046 1.1700000000000002 0.7940599822998047 1.1700000000000002 C 0.6260599822998046 1.1700000000000002 0.5225599822998046 1.068 0.5225599822998046 0.8970000000000001 C 0.5225599822998046 0.804 0.5525599822998046 0.7065000000000001 0.6020599822998046 0.6135000000000002 C 0.6410599822998047 0.6180000000000001 0.6785599822998046 0.6195000000000002 0.7175599822998047 0.6195000000000002 C 1.0940599822998047 0.6195000000000002 1.5635599822998048 0.3975000000000001 1.5635599822998048 0.13350000000000006 C 1.5635599822998048 0.05400000000000005 1.5080599822998046 1.1102230246251565e-16 1.4030599822998047 1.1102230246251565e-16 C 1.1270599822998046 1.1102230246251565e-16 0.7505599822998047 0.2610000000000001 0.5765599822998047 0.5715000000000001 C 0.3545599822998047 0.5385000000000001 0.16105998229980464 0.43200000000000005 0.16105998229980464 0.26250000000000007 C 0.16105998229980464 0.14100000000000013 0.2735599822998046 0.07350000000000012 0.38155998229980465 0.07350000000000012 C 0.5495599822998046 0.07350000000000012 0.6200599822998046 0.1785000000000001 0.6335599822998046 0.1785000000000001 C 0.6410599822998047 0.1785000000000001 0.6485599822998046 0.17400000000000004 0.6485599822998046 0.16200000000000003 C 0.6485599822998046 0.14700000000000002 0.5435599822998046 0.034500000000000086 0.37855998229980464 0.034500000000000086 M 1.4045599822998047 0.03750000000000009 C 1.4675599822998047 0.03750000000000009 1.5215599822998047 0.07200000000000006 1.5215599822998047 0.12750000000000006 C 1.5215599822998047 0.37650000000000006 1.0565599822998046 0.5820000000000001 0.7250599822998046 0.5820000000000001 C 0.6905599822998046 0.5820000000000001 0.6575599822998046 0.5805 0.6230599822998046 0.5775000000000001 C 0.7955599822998046 0.28800000000000003 1.1525599822998047 0.03750000000000009 1.4045599822998047 0.03750000000000009 M 0.36505998229980463 1.9125 C 0.2765599822998046 1.9125 0.21055998229980463 1.8585000000000003 0.21055998229980463 1.7715 C 0.21055998229980463 1.5300000000000002 0.6290599822998046 1.332 0.9275599822998046 1.332 C 0.8060599822998047 1.6230000000000002 0.6455599822998046 1.9125 0.36505998229980463 1.9125 M 1.2620599822998047 0.78 C 1.2755599822998047 0.78 1.2845599822998046 0.7875000000000001 1.2845599822998046 0.804 C 1.2845599822998046 0.8760000000000001 1.1945599822998048 0.9915 1.0730599822998048 1.0725 C 1.1375599822998046 0.9060000000000001 1.1930599822998047 0.78 1.2620599822998047 0.78 M 2.0360738983154296 0.8265000000000001 C 2.0360738983154296 0.8265000000000001 2.04357389831543 0.8175000000000001 2.04357389831543 0.8115000000000001 C 2.04357389831543 0.804 2.0375738983154297 0.798 2.03007389831543 0.798 C 2.0225738983154296 0.798 2.0150738983154297 0.807 2.0150738983154297 0.807 C 2.0150738983154297 0.807 1.9010738983154298 0.9420000000000001 1.8110738983154298 0.9420000000000001 C 1.7750738983154297 0.9420000000000001 1.7540738983154298 0.9120000000000001 1.7540738983154298 0.8850000000000001 C 1.7540738983154298 0.8625 1.7615738983154299 0.8430000000000001 1.7720738983154298 0.8265000000000001 C 1.8005738983154298 0.78 1.84407389831543 0.7170000000000001 1.8740738983154297 0.681 C 1.8815738983154298 0.6720000000000002 1.8845738983154297 0.6675000000000001 1.8845738983154297 0.663 C 1.8845738983154297 0.6555000000000001 1.8725738983154296 0.645 1.8635738983154297 0.645 C 1.8575738983154297 0.645 1.8530738983154298 0.6495000000000001 1.8425738983154298 0.6615000000000001 C 1.8140738983154296 0.6960000000000001 1.7765738983154298 0.7515000000000001 1.7300738983154298 0.81 C 1.6595738983154298 0.8985000000000001 1.5695738983154297 0.9930000000000001 1.4990738983154297 0.9930000000000001 C 1.4675738983154298 0.9930000000000001 1.4450738983154297 0.9720000000000001 1.4450738983154297 0.9345000000000001 C 1.4450738983154297 0.8175000000000001 1.5875738983154297 0.657 1.6235738983154298 0.6180000000000001 C 1.6310738983154298 0.6105 1.6355738983154298 0.6045 1.6355738983154298 0.6000000000000001 C 1.6355738983154298 0.5910000000000001 1.6250738983154298 0.5805 1.6130738983154298 0.5805 C 1.5905738983154298 0.5805 1.4000738983154297 0.81 1.4000738983154297 0.9390000000000001 C 1.4000738983154297 0.9885 1.4390738983154299 1.0275 1.4915738983154299 1.0275 C 1.5800738983154297 1.0275 1.6790738983154299 0.9195000000000001 1.71507389831543 0.8850000000000001 C 1.7180738983154298 0.9375000000000001 1.7570738983154297 0.9750000000000001 1.8065738983154298 0.9750000000000001 C 1.9055738983154298 0.9750000000000001 2.0360738983154296 0.8265000000000001 2.0360738983154296 0.8265000000000001 M 2.405102462768555 0.9630000000000001 C 2.4606024627685548 0.9630000000000001 2.526602462768555 0.918 2.610602462768555 0.8265000000000001 C 2.610602462768555 0.8265000000000001 2.618102462768555 0.8175000000000001 2.618102462768555 0.8115000000000001 C 2.618102462768555 0.804 2.6121024627685547 0.798 2.603102462768555 0.798 C 2.597102462768555 0.798 2.5896024627685548 0.807 2.5896024627685548 0.807 C 2.511602462768555 0.8940000000000001 2.454602462768555 0.9315000000000001 2.4126024627685547 0.9315000000000001 C 2.373602462768555 0.9315000000000001 2.348102462768555 0.9060000000000001 2.348102462768555 0.8505 C 2.348102462768555 0.798 2.3781024627685547 0.7620000000000001 2.3781024627685547 0.7530000000000001 C 2.3781024627685547 0.7410000000000001 2.367602462768555 0.7335 2.358602462768555 0.7335 C 2.345102462768555 0.7335 2.316602462768555 0.78 2.276102462768555 0.8280000000000001 C 2.226602462768555 0.8880000000000001 2.126102462768555 0.9825 2.063102462768555 0.9825 C 2.039102462768555 0.9825 2.024102462768555 0.9705000000000001 2.024102462768555 0.9390000000000001 C 2.024102462768555 0.8160000000000001 2.208602462768555 0.6225 2.373602462768555 0.6225 C 2.418602462768555 0.6225 2.430602462768555 0.6525000000000001 2.430602462768555 0.6735000000000001 C 2.430602462768555 0.6885000000000001 2.426102462768555 0.6960000000000001 2.426102462768555 0.7035 C 2.426102462768555 0.7095 2.429102462768555 0.7125000000000001 2.4351024627685547 0.7125000000000001 C 2.444102462768555 0.7125000000000001 2.462102462768555 0.6915 2.462102462768555 0.6645000000000001 C 2.462102462768555 0.627 2.430602462768555 0.5895000000000001 2.360102462768555 0.5895000000000001 C 2.196602462768555 0.5895000000000001 1.983602462768555 0.792 1.983602462768555 0.9390000000000001 C 1.983602462768555 0.9900000000000001 2.018102462768555 1.0170000000000001 2.058602462768555 1.0170000000000001 C 2.135102462768555 1.0170000000000001 2.2491024627685547 0.9075000000000001 2.3076024627685547 0.8400000000000001 C 2.3076024627685547 0.9120000000000001 2.348102462768555 0.9630000000000001 2.405102462768555 0.9630000000000001 M 2.65108122253418 0.534 C 2.67508122253418 0.534 2.70658122253418 0.5370000000000001 2.73958122253418 0.5415000000000001 C 2.66008122253418 0.6585000000000001 2.58808122253418 0.7950000000000002 2.58808122253418 0.9000000000000001 C 2.58808122253418 0.9525000000000001 2.62258122253418 0.9840000000000001 2.67058122253418 0.9840000000000001 C 2.79358122253418 0.9840000000000001 2.93008122253418 0.8265000000000001 2.93008122253418 0.8265000000000001 C 2.93008122253418 0.8265000000000001 2.93758122253418 0.8175000000000001 2.93758122253418 0.8115000000000001 C 2.93758122253418 0.804 2.93158122253418 0.798 2.92258122253418 0.798 C 2.91658122253418 0.798 2.90908122253418 0.807 2.90908122253418 0.807 C 2.90908122253418 0.807 2.78908122253418 0.9495000000000001 2.68408122253418 0.9495000000000001 C 2.65708122253418 0.9495000000000001 2.63308122253418 0.9315000000000001 2.63308122253418 0.8970000000000001 C 2.63308122253418 0.7890000000000001 2.70508122253418 0.6585000000000001 2.78308122253418 0.5475000000000001 C 2.84308122253418 0.5550000000000002 2.90608122253418 0.5640000000000001 2.94508122253418 0.5640000000000001 C 2.95858122253418 0.5640000000000001 2.97208122253418 0.5490000000000002 2.97208122253418 0.5430000000000001 C 2.97208122253418 0.5370000000000001 2.96608122253418 0.534 2.95408122253418 0.534 C 2.91808122253418 0.534 2.86258122253418 0.5250000000000001 2.80408122253418 0.5175000000000001 C 2.87308122253418 0.4215000000000001 2.94208122253418 0.3450000000000001 2.96158122253418 0.32100000000000006 C 2.97358122253418 0.30600000000000005 2.97808122253418 0.30300000000000005 2.97808122253418 0.2955000000000001 C 2.97808122253418 0.2865000000000001 2.96608122253418 0.2745000000000001 2.95858122253418 0.2745000000000001 C 2.95258122253418 0.2745000000000001 2.94508122253418 0.279 2.93608122253418 0.2895000000000001 C 2.91358122253418 0.31500000000000006 2.83708122253418 0.402 2.76058122253418 0.5115000000000001 C 2.72308122253418 0.5070000000000001 2.68858122253418 0.5025000000000001 2.65858122253418 0.5025000000000001 C 2.59708122253418 0.5025000000000001 2.57308122253418 0.5265000000000001 2.57308122253418 0.5385000000000001 C 2.57308122253418 0.546 2.57908122253418 0.5505000000000001 2.58658122253418 0.5505000000000001 C 2.59408122253418 0.5505000000000001 2.60908122253418 0.534 2.65108122253418 0.534 M 3.3875856170654304 0.8265000000000001 C 3.3875856170654304 0.8265000000000001 3.39508561706543 0.8175000000000001 3.39508561706543 0.8115000000000001 C 3.39508561706543 0.804 3.39058561706543 0.798 3.38158561706543 0.798 C 3.3740856170654303 0.798 3.36658561706543 0.807 3.36658561706543 0.807 C 3.36658561706543 0.807 3.21808561706543 0.9855 3.04858561706543 0.9855 C 2.9870856170654303 0.9855 2.94658561706543 0.9480000000000001 2.94658561706543 0.8910000000000001 C 2.94658561706543 0.8820000000000001 2.94658561706543 0.8715 2.94808561706543 0.8625 C 3.07408561706543 0.8325 3.2795856170654303 0.7485 3.2795856170654303 0.6600000000000001 C 3.2795856170654303 0.6225 3.25108561706543 0.5955000000000001 3.20458561706543 0.5955000000000001 C 3.0905856170654302 0.5955000000000001 2.9045856170654303 0.7470000000000001 2.9045856170654303 0.8865000000000001 C 2.9045856170654303 0.9720000000000001 2.97058561706543 1.02 3.04858561706543 1.02 C 3.2225856170654303 1.02 3.3875856170654304 0.8265000000000001 3.3875856170654304 0.8265000000000001 M 3.2105856170654303 0.6285000000000001 C 3.2315856170654302 0.6285000000000001 3.2435856170654302 0.6420000000000001 3.2435856170654302 0.6555000000000001 C 3.2435856170654302 0.7245000000000001 3.07258561706543 0.801 2.95858561706543 0.8280000000000001 C 2.9990856170654303 0.7260000000000001 3.12358561706543 0.6285000000000001 3.2105856170654303 0.6285000000000001 M 4.329559982299806 0.8265000000000001 C 4.329559982299806 0.8265000000000001 4.337059982299805 0.8175000000000001 4.337059982299805 0.8115000000000001 C 4.337059982299805 0.804 4.331059982299806 0.798 4.323559982299805 0.798 C 4.316059982299805 0.798 4.308559982299805 0.807 4.308559982299805 0.807 C 4.308559982299805 0.807 4.1840599822998055 0.9525000000000001 4.085059982299805 0.9525000000000001 C 4.056559982299805 0.9525000000000001 4.037059982299805 0.936 4.037059982299805 0.909 C 4.037059982299805 0.8535000000000001 4.101559982299805 0.774 4.101559982299805 0.7200000000000001 C 4.101559982299805 0.6885000000000001 4.076059982299805 0.663 4.0430599822998055 0.663 C 3.9515599822998055 0.663 3.7970599822998055 0.81 3.750559982299805 0.8520000000000001 C 3.7730599822998054 0.807 3.8870599822998053 0.7005000000000001 3.8870599822998053 0.6405000000000001 C 3.8870599822998053 0.6045 3.860059982299805 0.5745 3.8195599822998054 0.5745 C 3.7010599822998054 0.5745 3.4565599822998054 0.786 3.3470599822998053 0.924 C 3.4565599822998054 0.7455 3.5255599822998054 0.675 3.578059982299805 0.6225 C 3.587059982299805 0.6135000000000002 3.5930599822998053 0.6075000000000002 3.5930599822998053 0.6015000000000001 C 3.5930599822998053 0.5925 3.5840599822998054 0.5820000000000001 3.5735599822998054 0.5820000000000001 C 3.5570599822998052 0.5820000000000001 3.4295599822998053 0.7230000000000001 3.366559982299805 0.8280000000000001 C 3.318559982299805 0.9075000000000001 3.294559982299805 0.9480000000000001 3.294559982299805 0.9645000000000001 C 3.294559982299805 0.9780000000000001 3.308059982299805 0.9885 3.3170599822998055 0.9885 C 3.3275599822998054 0.9885 3.3350599822998053 0.9780000000000001 3.3515599822998055 0.9600000000000001 C 3.473059982299805 0.8130000000000001 3.717559982299805 0.6090000000000001 3.812059982299805 0.6090000000000001 C 3.834559982299805 0.6090000000000001 3.846559982299805 0.6210000000000001 3.846559982299805 0.6405000000000001 C 3.846559982299805 0.6960000000000001 3.671059982299805 0.8715 3.671059982299805 0.9195000000000001 C 3.671059982299805 0.9315000000000001 3.680059982299805 0.9390000000000001 3.6890599822998054 0.9390000000000001 C 3.6995599822998053 0.9390000000000001 3.7115599822998053 0.9255000000000001 3.7325599822998052 0.9060000000000001 C 3.810559982299805 0.8340000000000001 3.965059982299805 0.6975 4.031059982299805 0.6975 C 4.047559982299806 0.6975 4.061059982299805 0.7065000000000001 4.061059982299805 0.7245000000000001 C 4.061059982299805 0.7725000000000001 3.9950599822998054 0.8430000000000001 3.9950599822998054 0.9120000000000001 C 3.9950599822998054 0.9570000000000001 4.032559982299805 0.9840000000000001 4.071559982299806 0.9840000000000001 C 4.194559982299805 0.9840000000000001 4.329559982299806 0.8265000000000001 4.329559982299806 0.8265000000000001 M 4.69853141784668 0.9630000000000001 C 4.75403141784668 0.9630000000000001 4.82003141784668 0.918 4.90403141784668 0.8265000000000001 C 4.90403141784668 0.8265000000000001 4.91153141784668 0.8175000000000001 4.91153141784668 0.8115000000000001 C 4.91153141784668 0.804 4.90553141784668 0.798 4.89653141784668 0.798 C 4.89053141784668 0.798 4.88303141784668 0.807 4.88303141784668 0.807 C 4.8050314178466795 0.8940000000000001 4.74803141784668 0.9315000000000001 4.70603141784668 0.9315000000000001 C 4.66703141784668 0.9315000000000001 4.6415314178466796 0.9060000000000001 4.6415314178466796 0.8505 C 4.6415314178466796 0.798 4.67153141784668 0.7620000000000001 4.67153141784668 0.7530000000000001 C 4.67153141784668 0.7410000000000001 4.66103141784668 0.7335 4.65203141784668 0.7335 C 4.63853141784668 0.7335 4.61003141784668 0.78 4.5695314178466795 0.8280000000000001 C 4.52003141784668 0.8880000000000001 4.41953141784668 0.9825 4.35653141784668 0.9825 C 4.33253141784668 0.9825 4.31753141784668 0.9705000000000001 4.31753141784668 0.9390000000000001 C 4.31753141784668 0.8160000000000001 4.50203141784668 0.6225 4.66703141784668 0.6225 C 4.71203141784668 0.6225 4.72403141784668 0.6525000000000001 4.72403141784668 0.6735000000000001 C 4.72403141784668 0.6885000000000001 4.71953141784668 0.6960000000000001 4.71953141784668 0.7035 C 4.71953141784668 0.7095 4.72253141784668 0.7125000000000001 4.72853141784668 0.7125000000000001 C 4.73753141784668 0.7125000000000001 4.75553141784668 0.6915 4.75553141784668 0.6645000000000001 C 4.75553141784668 0.627 4.72403141784668 0.5895000000000001 4.65353141784668 0.5895000000000001 C 4.49003141784668 0.5895000000000001 4.27703141784668 0.792 4.27703141784668 0.9390000000000001 C 4.27703141784668 0.9900000000000001 4.31153141784668 1.0170000000000001 4.35203141784668 1.0170000000000001 C 4.42853141784668 1.0170000000000001 4.54253141784668 0.9075000000000001 4.60103141784668 0.8400000000000001 C 4.60103141784668 0.9120000000000001 4.6415314178466796 0.9630000000000001 4.69853141784668 0.9630000000000001 M 5.267010177612304 0.8265000000000001 C 5.267010177612304 0.8265000000000001 5.274510177612305 0.8175000000000001 5.274510177612305 0.8115000000000001 C 5.274510177612305 0.804 5.2685101776123044 0.798 5.259510177612305 0.798 C 5.253510177612305 0.798 5.2460101776123045 0.807 5.2460101776123045 0.807 C 5.225010177612305 0.8295000000000001 5.102010177612304 0.9705000000000001 5.006010177612304 0.9705000000000001 C 4.953510177612305 0.9705000000000001 4.925010177612305 0.9405000000000001 4.925010177612305 0.8880000000000001 C 4.925010177612305 0.8400000000000001 4.938510177612304 0.8220000000000001 4.938510177612304 0.8220000000000001 C 5.126010177612304 0.6480000000000001 5.415510177612305 0.35250000000000004 5.415510177612305 0.2400000000000001 C 5.415510177612305 0.20100000000000007 5.391510177612305 0.17700000000000005 5.354010177612305 0.17700000000000005 C 5.219010177612304 0.17700000000000005 4.887510177612304 0.6375000000000001 4.887510177612304 0.8880000000000001 C 4.887510177612304 0.9615000000000001 4.935510177612304 1.0050000000000001 4.998510177612305 1.0050000000000001 C 5.108010177612305 1.0050000000000001 5.2460101776123045 0.8490000000000001 5.267010177612304 0.8265000000000001 M 5.355510177612304 0.20850000000000002 C 5.370510177612305 0.20850000000000002 5.381010177612304 0.21750000000000003 5.381010177612304 0.2340000000000001 C 5.381010177612304 0.3360000000000001 5.096010177612305 0.627 4.9415101776123045 0.7755000000000001 C 5.015010177612305 0.552 5.258010177612305 0.20850000000000002 5.355510177612304 0.20850000000000002 M 5.636002120971679 0.9630000000000001 C 5.69150212097168 0.9630000000000001 5.7575021209716795 0.918 5.841502120971679 0.8265000000000001 C 5.841502120971679 0.8265000000000001 5.849002120971679 0.8175000000000001 5.849002120971679 0.8115000000000001 C 5.849002120971679 0.804 5.843002120971679 0.798 5.83400212097168 0.798 C 5.8280021209716795 0.798 5.820502120971679 0.807 5.820502120971679 0.807 C 5.742502120971679 0.8940000000000001 5.685502120971679 0.9315000000000001 5.64350212097168 0.9315000000000001 C 5.604502120971679 0.9315000000000001 5.579002120971679 0.9060000000000001 5.579002120971679 0.8505 C 5.579002120971679 0.798 5.609002120971679 0.7620000000000001 5.609002120971679 0.7530000000000001 C 5.609002120971679 0.7410000000000001 5.59850212097168 0.7335 5.589502120971679 0.7335 C 5.57600212097168 0.7335 5.5475021209716795 0.78 5.507002120971679 0.8280000000000001 C 5.45750212097168 0.8880000000000001 5.357002120971679 0.9825 5.29400212097168 0.9825 C 5.27000212097168 0.9825 5.255002120971679 0.9705000000000001 5.255002120971679 0.9390000000000001 C 5.255002120971679 0.8160000000000001 5.439502120971679 0.6225 5.604502120971679 0.6225 C 5.649502120971679 0.6225 5.661502120971679 0.6525000000000001 5.661502120971679 0.6735000000000001 C 5.661502120971679 0.6885000000000001 5.657002120971679 0.6960000000000001 5.657002120971679 0.7035 C 5.657002120971679 0.7095 5.660002120971679 0.7125000000000001 5.6660021209716795 0.7125000000000001 C 5.675002120971679 0.7125000000000001 5.69300212097168 0.6915 5.69300212097168 0.6645000000000001 C 5.69300212097168 0.627 5.661502120971679 0.5895000000000001 5.591002120971679 0.5895000000000001 C 5.427502120971679 0.5895000000000001 5.214502120971679 0.792 5.214502120971679 0.9390000000000001 C 5.214502120971679 0.9900000000000001 5.24900212097168 1.0170000000000001 5.2895021209716795 1.0170000000000001 C 5.36600212097168 1.0170000000000001 5.48000212097168 0.9075000000000001 5.538502120971679 0.8400000000000001 C 5.538502120971679 0.9120000000000001 5.579002120971679 0.9630000000000001 5.636002120971679 0.9630000000000001" fill="#ffffff" fill-rule="nonzero"></path></g><g><path d=" M 0.27796875 2.37736875 L 0.159375 2.37736875 L 0.159375 2.68111875 L 0.1265625 2.68111875 L 0.1265625 2.37736875 L 0.00796875 2.37736875 L 0.00796875 2.34830625 L 0.27796875 2.34830625 L 0.27796875 2.37736875 M 0.5310868835449218 2.68111875 L 0.49921188354492185 2.68111875 L 0.49921188354492185 2.5447125 Q 0.49921188354492185 2.5034625 0.48468063354492186 2.482603125 Q 0.47014938354492186 2.46174375 0.4429618835449219 2.46174375 Q 0.4251493835449219 2.46174375 0.4075712585449219 2.470884375 Q 0.3899931335449219 2.480025 0.37663375854492187 2.495728125 Q 0.36327438354492186 2.5114312500000002 0.3576493835449219 2.5315875 L 0.3576493835449219 2.68111875 L 0.3257743835449219 2.68111875 L 0.3257743835449219 2.33893125 L 0.3576493835449219 2.33893125 L 0.3576493835449219 2.4922125 Q 0.37218063354492187 2.465025 0.3981962585449219 2.448853125 Q 0.4242118835449219 2.43268125 0.4537431335449219 2.43268125 Q 0.4748368835449219 2.43268125 0.4896025085449219 2.44018125 Q 0.5043681335449219 2.44768125 0.5135087585449218 2.461978125 Q 0.5226493835449219 2.4762750000000002 0.5268681335449219 2.495259375 Q 0.5310868835449218 2.51424375 0.5310868835449218 2.53815 L 0.5310868835449218 2.68111875 M 0.7092155456542969 2.68580625 Q 0.6829655456542969 2.68580625 0.6604655456542969 2.675728125 Q 0.6379655456542969 2.66565 0.6215592956542969 2.648071875 Q 0.6051530456542968 2.63049375 0.5960124206542969 2.607525 Q 0.5868717956542969 2.58455625 0.5868717956542969 2.5583062500000002 Q 0.5868717956542969 2.5240875 0.6025749206542969 2.49549375 Q 0.6182780456542969 2.4669 0.6459342956542969 2.449790625 Q 0.6735905456542969 2.43268125 0.7087467956542969 2.43268125 Q 0.7448405456542969 2.43268125 0.7717936706542969 2.450025 Q 0.7987467956542968 2.46736875 0.8142155456542969 2.495728125 Q 0.8296842956542969 2.5240875 0.8296842956542969 2.5578375 Q 0.8296842956542969 2.5615875 0.8296842956542969 2.565103125 Q 0.8296842956542969 2.56861875 0.8292155456542969 2.57049375 L 0.6201530456542969 2.57049375 Q 0.6224967956542969 2.59674375 0.6349186706542969 2.617134375 Q 0.6473405456542969 2.637525 0.6672624206542969 2.649478125 Q 0.6871842956542968 2.66143125 0.7106217956542968 2.66143125 Q 0.7345280456542969 2.66143125 0.7558561706542969 2.64924375 Q 0.7771842956542969 2.63705625 0.7856217956542969 2.61736875 L 0.813278045654297 2.62486875 Q 0.8057780456542969 2.6422125 0.7903092956542969 2.656275 Q 0.7748405456542968 2.6703375 0.7539811706542969 2.678071875 Q 0.7331217956542969 2.68580625 0.7092155456542969 2.68580625 M 0.6192155456542969 2.547525 L 0.7996842956542969 2.547525 Q 0.7978092956542969 2.52080625 0.7853874206542969 2.50065 Q 0.7729655456542969 2.48049375 0.7530436706542969 2.469009375 Q 0.7331217956542969 2.457525 0.7092155456542969 2.457525 Q 0.6853092956542969 2.457525 0.6656217956542969 2.469009375 Q 0.6459342956542969 2.48049375 0.6335124206542969 2.500884375 Q 0.6210905456542969 2.521275 0.6192155456542969 2.547525 M 1.0143624114990235 2.68111875 L 1.0143624114990235 2.34830625 L 1.0471749114990234 2.34830625 L 1.0471749114990234 2.65205625 L 1.2393624114990236 2.65205625 L 1.2393624114990236 2.68111875 L 1.0143624114990235 2.68111875 M 1.2660848236083984 2.61080625 Q 1.2660848236083984 2.5878375 1.2792098236083984 2.571196875 Q 1.2923348236083985 2.55455625 1.3155379486083985 2.545415625 Q 1.3387410736083984 2.536275 1.3692098236083985 2.536275 Q 1.3870223236083985 2.536275 1.4062410736083983 2.5390875 Q 1.4254598236083984 2.5419 1.4404598236083985 2.547525 L 1.4404598236083985 2.5269 Q 1.4404598236083985 2.4959625 1.4221785736083985 2.47768125 Q 1.4038973236083985 2.4594 1.3715535736083984 2.4594 Q 1.3518660736083985 2.4594 1.3328816986083984 2.466665625 Q 1.3138973236083984 2.47393125 1.2932723236083985 2.4879937500000002 L 1.2810848236083985 2.46549375 Q 1.3049910736083985 2.4490875 1.3279598236083985 2.440884375 Q 1.3509285736083985 2.43268125 1.3748348236083985 2.43268125 Q 1.4198348236083984 2.43268125 1.4460848236083985 2.4584625 Q 1.4723348236083984 2.48424375 1.4723348236083984 2.5297125 L 1.4723348236083984 2.64268125 Q 1.4723348236083984 2.64924375 1.4751473236083985 2.652290625 Q 1.4779598236083984 2.6553375 1.4840535736083984 2.65580625 L 1.4840535736083984 2.68111875 Q 1.4788973236083984 2.6815875 1.4751473236083985 2.68205625 Q 1.4713973236083984 2.682525 1.4695223236083985 2.68205625 Q 1.4578035736083985 2.6815875 1.4517098236083985 2.67455625 Q 1.4456160736083985 2.667525 1.4451473236083985 2.65955625 L 1.4446785736083985 2.64174375 Q 1.4282723236083985 2.6628375 1.4020223236083984 2.674321875 Q 1.3757723236083985 2.68580625 1.3485848236083984 2.68580625 Q 1.3251473236083984 2.68580625 1.3061629486083985 2.675728125 Q 1.2871785736083985 2.66565 1.2766316986083985 2.648540625 Q 1.2660848236083984 2.63143125 1.2660848236083984 2.61080625 M 1.4296785736083983 2.62955625 Q 1.4348348236083983 2.62299375 1.4376473236083984 2.6169000000000002 Q 1.4404598236083985 2.61080625 1.4404598236083985 2.60611875 L 1.4404598236083985 2.57049375 Q 1.4245223236083984 2.5644 1.4074129486083984 2.56111875 Q 1.3903035736083984 2.5578375 1.3729598236083984 2.5578375 Q 1.3387410736083984 2.5578375 1.3176473236083985 2.57143125 Q 1.2965535736083984 2.585025 1.2965535736083984 2.6084625 Q 1.2965535736083984 2.62205625 1.3035848236083984 2.634009375 Q 1.3106160736083985 2.6459625 1.3242098236083983 2.653696875 Q 1.3378035736083984 2.66143125 1.3560848236083984 2.66143125 Q 1.3790535736083984 2.66143125 1.3989754486083985 2.652525 Q 1.4188973236083984 2.64361875 1.4296785736083983 2.62955625 M 1.7512330627441406 2.68111875 L 1.7193580627441405 2.68111875 L 1.7193580627441405 2.5447125 Q 1.7193580627441405 2.5015875 1.7067018127441407 2.481665625 Q 1.6940455627441406 2.46174375 1.6668580627441405 2.46174375 Q 1.6481080627441407 2.46174375 1.6298268127441407 2.470884375 Q 1.6115455627441406 2.480025 1.5977174377441405 2.495728125 Q 1.5838893127441405 2.5114312500000002 1.5777955627441407 2.5315875 L 1.5777955627441407 2.68111875 L 1.5459205627441406 2.68111875 L 1.5459205627441406 2.4369 L 1.5749830627441406 2.4369 L 1.5749830627441406 2.4922125 Q 1.5848268127441405 2.4744 1.6007643127441407 2.461040625 Q 1.6167018127441406 2.44768125 1.6368580627441407 2.44018125 Q 1.6570143127441406 2.43268125 1.6785768127441405 2.43268125 Q 1.6987330627441406 2.43268125 1.7127955627441405 2.44018125 Q 1.7268580627441406 2.44768125 1.7352955627441407 2.461509375 Q 1.7437330627441405 2.4753375 1.7474830627441404 2.494790625 Q 1.7512330627441406 2.51424375 1.7512330627441406 2.53815 L 1.7512330627441406 2.68111875 M 1.8074867248535156 2.5597125 Q 1.8074867248535156 2.525025 1.8217835998535155 2.496196875 Q 1.8360804748535156 2.46736875 1.8613929748535156 2.450025 Q 1.8867054748535155 2.43268125 1.9190492248535156 2.43268125 Q 1.9495179748535154 2.43268125 1.9736585998535154 2.448853125 Q 1.9977992248535155 2.465025 2.0113929748535155 2.4879937500000002 L 2.0113929748535155 2.33893125 L 2.0432679748535154 2.33893125 L 2.0432679748535154 2.64268125 Q 2.0432679748535154 2.64924375 2.0460804748535155 2.652290625 Q 2.0488929748535156 2.6553375 2.0545179748535154 2.65580625 L 2.0545179748535154 2.68111875 Q 2.0451429748535155 2.682525 2.0399867248535157 2.68205625 Q 2.0301429748535154 2.6815875 2.0226429748535155 2.6740875 Q 2.0151429748535157 2.6665875 2.0151429748535157 2.65768125 L 2.0151429748535157 2.633775 Q 2.0006117248535156 2.65768125 1.9757679748535155 2.67174375 Q 1.9509242248535155 2.68580625 1.9242054748535156 2.68580625 Q 1.8988929748535155 2.68580625 1.8775648498535156 2.67549375 Q 1.8562367248535154 2.66518125 1.8405335998535155 2.64736875 Q 1.8248304748535156 2.62955625 1.8161585998535155 2.606821875 Q 1.8074867248535156 2.5840875 1.8074867248535156 2.5597125 M 2.0113929748535155 2.5972125 L 2.0113929748535155 2.52174375 Q 2.0052992248535153 2.50486875 1.9917054748535155 2.491040625 Q 1.9781117248535156 2.4772125 1.9610023498535156 2.469009375 Q 1.9438929748535156 2.46080625 1.9270179748535154 2.46080625 Q 1.9073304748535156 2.46080625 1.8913929748535154 2.469009375 Q 1.8754554748535155 2.4772125 1.8639710998535155 2.491275 Q 1.8524867248535155 2.5053375 1.8463929748535155 2.5231500000000002 Q 1.8402992248535155 2.5409625 1.8402992248535155 2.5597125 Q 1.8402992248535155 2.5794 1.8470960998535155 2.5972125 Q 1.8538929748535156 2.615025 1.8665492248535156 2.628853125 Q 1.8792054748535156 2.64268125 1.8956117248535156 2.65018125 Q 1.9120179748535155 2.65768125 1.9312367248535156 2.65768125 Q 1.9434242248535156 2.65768125 1.9565492248535155 2.65299375 Q 1.9696742248535155 2.64830625 1.9816273498535155 2.640103125 Q 1.9935804748535155 2.6319 2.0015492248535156 2.62065 Q 2.0095179748535155 2.6094 2.0113929748535155 2.5972125 M 2.384993362426758 2.6834625 Q 2.349837112426758 2.6834625 2.321243362426758 2.6694 Q 2.292649612426758 2.6553375 2.2720246124267582 2.631196875 Q 2.251399612426758 2.60705625 2.240149612426758 2.576821875 Q 2.228899612426758 2.5465875000000002 2.228899612426758 2.5147125 Q 2.228899612426758 2.48143125 2.240618362426758 2.451196875 Q 2.252337112426758 2.4209625 2.273665237426758 2.397290625 Q 2.294993362426758 2.37361875 2.323587112426758 2.359790625 Q 2.352180862426758 2.3459625 2.385462112426758 2.3459625 Q 2.420618362426758 2.3459625 2.449212112426758 2.36049375 Q 2.477805862426758 2.375025 2.498196487426758 2.3994 Q 2.5185871124267583 2.423775 2.5298371124267582 2.453775 Q 2.541087112426758 2.483775 2.541087112426758 2.51518125 Q 2.541087112426758 2.5484625 2.529368362426758 2.578696875 Q 2.517649612426758 2.60893125 2.4965558624267583 2.632603125 Q 2.475462112426758 2.656275 2.446868362426758 2.66986875 Q 2.418274612426758 2.6834625 2.384993362426758 2.6834625 M 2.2617121124267583 2.5147125 Q 2.2617121124267583 2.5419 2.270618362426758 2.566978125 Q 2.279524612426758 2.59205625 2.2959308624267583 2.611509375 Q 2.312337112426758 2.6309625 2.335071487426758 2.642446875 Q 2.357805862426758 2.65393125 2.384993362426758 2.65393125 Q 2.4135871124267583 2.65393125 2.436321487426758 2.641978125 Q 2.459055862426758 2.630025 2.475227737426758 2.610103125 Q 2.491399612426758 2.59018125 2.499837112426758 2.5653375 Q 2.5082746124267583 2.54049375 2.5082746124267583 2.5147125 Q 2.5082746124267583 2.487525 2.499368362426758 2.46268125 Q 2.490462112426758 2.4378375 2.473821487426758 2.41815 Q 2.457180862426758 2.3984625 2.434680862426758 2.3872125 Q 2.412180862426758 2.3759625 2.384993362426758 2.3759625 Q 2.356868362426758 2.3759625 2.334133987426758 2.38768125 Q 2.311399612426758 2.3994 2.295227737426758 2.419321875 Q 2.279055862426758 2.43924375 2.270383987426758 2.4640875 Q 2.2617121124267583 2.48893125 2.2617121124267583 2.5147125 M 2.612794876098633 2.68111875 L 2.612794876098633 2.4622125 L 2.579044876098633 2.4622125 L 2.579044876098633 2.4369 L 2.612794876098633 2.4369 L 2.612794876098633 2.4303375 Q 2.612794876098633 2.4003375 2.621466751098633 2.378775 Q 2.630138626098633 2.3572125 2.646310501098633 2.345728125 Q 2.662482376098633 2.33424375 2.684513626098633 2.33424375 Q 2.699044876098633 2.33424375 2.7126386260986326 2.3384625 Q 2.7262323760986327 2.34268125 2.7360761260986326 2.3497125 L 2.7262323760986327 2.37268125 Q 2.720138626098633 2.367525 2.710294876098633 2.3647125 Q 2.700451126098633 2.3619 2.6906073760986327 2.3619 Q 2.6685761260986327 2.3619 2.656623001098633 2.37924375 Q 2.6446698760986327 2.3965875 2.6446698760986327 2.4294000000000002 L 2.6446698760986327 2.4369 L 2.712169876098633 2.4369 L 2.712169876098633 2.4622125 L 2.6446698760986327 2.4622125 L 2.6446698760986327 2.68111875 L 2.612794876098633 2.68111875 M 3.1045367431640627 2.65205625 L 3.1045367431640627 2.68111875 L 2.8809429931640627 2.68111875 L 2.8809429931640627 2.34830625 L 3.100317993164063 2.34830625 L 3.100317993164063 2.37736875 L 2.913755493164063 2.37736875 L 2.913755493164063 2.49736875 L 3.076411743164063 2.49736875 L 3.076411743164063 2.525025 L 2.913755493164063 2.525025 L 2.913755493164063 2.65205625 L 3.1045367431640627 2.65205625 M 3.2779804229736333 2.6694 Q 3.274230422973633 2.67080625 3.2662616729736333 2.67455625 Q 3.2582929229736335 2.67830625 3.2470429229736335 2.68111875 Q 3.2357929229736335 2.68393125 3.2226679229736335 2.68393125 Q 3.2090741729736334 2.68393125 3.197121047973633 2.678775 Q 3.1851679229736334 2.67361875 3.1781366729736336 2.663071875 Q 3.1711054229736333 2.652525 3.1711054229736333 2.63705625 L 3.1711054229736333 2.4622125 L 3.1373554229736333 2.4622125 L 3.1373554229736333 2.4369 L 3.1711054229736333 2.4369 L 3.1711054229736333 2.3544 L 3.202980422973633 2.3544 L 3.202980422973633 2.4369 L 3.2592304229736335 2.4369 L 3.2592304229736335 2.4622125 L 3.202980422973633 2.4622125 L 3.202980422973633 2.62815 Q 3.203917922973633 2.641275 3.2125897979736333 2.6478375 Q 3.2212616729736334 2.6544 3.2325116729736334 2.6544 Q 3.2456366729736335 2.6544 3.2564179229736334 2.649946875 Q 3.2671991729736334 2.64549375 3.2695429229736335 2.64361875 L 3.2779804229736333 2.6694 M 3.423785018920899 2.68580625 Q 3.397535018920899 2.68580625 3.375035018920899 2.675728125 Q 3.352535018920899 2.66565 3.336128768920899 2.648071875 Q 3.319722518920899 2.63049375 3.310581893920899 2.607525 Q 3.301441268920899 2.58455625 3.301441268920899 2.5583062500000002 Q 3.301441268920899 2.5240875 3.3171443939208993 2.49549375 Q 3.3328475189208993 2.4669 3.360503768920899 2.449790625 Q 3.388160018920899 2.43268125 3.423316268920899 2.43268125 Q 3.459410018920899 2.43268125 3.486363143920899 2.450025 Q 3.513316268920899 2.46736875 3.528785018920899 2.495728125 Q 3.5442537689208993 2.5240875 3.5442537689208993 2.5578375 Q 3.5442537689208993 2.5615875 3.5442537689208993 2.565103125 Q 3.5442537689208993 2.56861875 3.5437850189208993 2.57049375 L 3.3347225189208993 2.57049375 Q 3.337066268920899 2.59674375 3.349488143920899 2.617134375 Q 3.361910018920899 2.637525 3.381831893920899 2.649478125 Q 3.401753768920899 2.66143125 3.425191268920899 2.66143125 Q 3.449097518920899 2.66143125 3.4704256439208994 2.64924375 Q 3.491753768920899 2.63705625 3.500191268920899 2.61736875 L 3.527847518920899 2.62486875 Q 3.5203475189208993 2.6422125 3.504878768920899 2.656275 Q 3.489410018920899 2.6703375 3.4685506439208993 2.678071875 Q 3.447691268920899 2.68580625 3.423785018920899 2.68580625 M 3.3337850189208993 2.547525 L 3.514253768920899 2.547525 Q 3.512378768920899 2.52080625 3.499956893920899 2.50065 Q 3.4875350189208993 2.48049375 3.4676131439208993 2.469009375 Q 3.447691268920899 2.457525 3.423785018920899 2.457525 Q 3.399878768920899 2.457525 3.3801912689208993 2.469009375 Q 3.360503768920899 2.48049375 3.348081893920899 2.500884375 Q 3.3356600189208994 2.521275 3.3337850189208993 2.547525 M 3.7200233459472667 2.465025 Q 3.6881483459472664 2.4659625 3.6640077209472666 2.4828375 Q 3.6398670959472663 2.4997125000000002 3.6300233459472664 2.52924375 L 3.6300233459472664 2.68111875 L 3.5981483459472665 2.68111875 L 3.5981483459472665 2.4369 L 3.6281483459472663 2.4369 L 3.6281483459472663 2.49549375 Q 3.6408045959472664 2.4697125 3.6616639709472665 2.453775 Q 3.6825233459472666 2.4378375 3.7059608459472666 2.4359625 Q 3.7106483459472663 2.43549375 3.7141639709472667 2.43549375 Q 3.7176795959472666 2.43549375 3.7200233459472667 2.4359625 L 3.7200233459472667 2.465025 M 3.972685775756837 2.68111875 L 3.940810775756837 2.68111875 L 3.940810775756837 2.5447125 Q 3.940810775756837 2.5015875 3.928154525756837 2.481665625 Q 3.915498275756837 2.46174375 3.888310775756837 2.46174375 Q 3.869560775756837 2.46174375 3.851279525756837 2.470884375 Q 3.832998275756837 2.480025 3.819170150756837 2.495728125 Q 3.805342025756837 2.5114312500000002 3.799248275756837 2.5315875 L 3.799248275756837 2.68111875 L 3.767373275756837 2.68111875 L 3.767373275756837 2.4369 L 3.796435775756837 2.4369 L 3.796435775756837 2.4922125 Q 3.806279525756837 2.4744 3.822217025756837 2.461040625 Q 3.838154525756837 2.44768125 3.858310775756837 2.44018125 Q 3.878467025756837 2.43268125 3.900029525756837 2.43268125 Q 3.920185775756837 2.43268125 3.934248275756837 2.44018125 Q 3.948310775756837 2.44768125 3.956748275756837 2.461509375 Q 3.965185775756837 2.4753375 3.968935775756837 2.494790625 Q 3.972685775756837 2.51424375 3.972685775756837 2.53815 L 3.972685775756837 2.68111875 M 4.025658187866212 2.61080625 Q 4.025658187866212 2.5878375 4.038783187866212 2.571196875 Q 4.051908187866212 2.55455625 4.075111312866212 2.545415625 Q 4.098314437866212 2.536275 4.128783187866212 2.536275 Q 4.1465956878662125 2.536275 4.165814437866212 2.5390875 Q 4.185033187866212 2.5419 4.200033187866212 2.547525 L 4.200033187866212 2.5269 Q 4.200033187866212 2.4959625 4.1817519378662125 2.47768125 Q 4.163470687866212 2.4594 4.131126937866212 2.4594 Q 4.1114394378662125 2.4594 4.092455062866212 2.466665625 Q 4.073470687866212 2.47393125 4.0528456878662125 2.4879937500000002 L 4.040658187866212 2.46549375 Q 4.0645644378662125 2.4490875 4.087533187866212 2.440884375 Q 4.110501937866212 2.43268125 4.134408187866212 2.43268125 Q 4.179408187866212 2.43268125 4.205658187866212 2.4584625 Q 4.231908187866212 2.48424375 4.231908187866212 2.5297125 L 4.231908187866212 2.64268125 Q 4.231908187866212 2.64924375 4.234720687866212 2.652290625 Q 4.237533187866212 2.6553375 4.243626937866212 2.65580625 L 4.243626937866212 2.68111875 Q 4.238470687866212 2.6815875 4.234720687866212 2.68205625 Q 4.230970687866212 2.682525 4.229095687866212 2.68205625 Q 4.217376937866212 2.6815875 4.211283187866212 2.67455625 Q 4.2051894378662125 2.667525 4.204720687866212 2.65955625 L 4.204251937866212 2.64174375 Q 4.187845687866212 2.6628375 4.161595687866212 2.674321875 Q 4.135345687866212 2.68580625 4.108158187866212 2.68580625 Q 4.084720687866212 2.68580625 4.065736312866212 2.675728125 Q 4.046751937866212 2.66565 4.0362050628662125 2.648540625 Q 4.025658187866212 2.63143125 4.025658187866212 2.61080625 M 4.189251937866212 2.62955625 Q 4.1944081878662125 2.62299375 4.197220687866212 2.6169000000000002 Q 4.200033187866212 2.61080625 4.200033187866212 2.60611875 L 4.200033187866212 2.57049375 Q 4.184095687866212 2.5644 4.166986312866213 2.56111875 Q 4.149876937866212 2.5578375 4.132533187866212 2.5578375 Q 4.098314437866212 2.5578375 4.0772206878662125 2.57143125 Q 4.056126937866212 2.585025 4.056126937866212 2.6084625 Q 4.056126937866212 2.62205625 4.063158187866212 2.634009375 Q 4.070189437866212 2.6459625 4.083783187866212 2.653696875 Q 4.097376937866212 2.66143125 4.115658187866212 2.66143125 Q 4.138626937866212 2.66143125 4.158548812866212 2.652525 Q 4.178470687866212 2.64361875 4.189251937866212 2.62955625 M 4.306900177001954 2.33893125 L 4.3387751770019545 2.33893125 L 4.3387751770019545 2.62580625 Q 4.3387751770019545 2.6440875 4.345337677001955 2.6497125 Q 4.351900177001955 2.6553375 4.361275177001954 2.6553375 Q 4.369712677001955 2.6553375 4.378150177001954 2.6534625 Q 4.3865876770019545 2.6515875 4.392681427001954 2.6497125 L 4.3983064270019545 2.67549375 Q 4.389400177001955 2.67924375 4.376509552001955 2.6815875 Q 4.363618927001955 2.68393125 4.354243927001955 2.68393125 Q 4.332681427001955 2.68393125 4.319790802001955 2.671275 Q 4.306900177001954 2.65861875 4.306900177001954 2.6365875 L 4.306900177001954 2.33893125 M 4.748907165527346 2.41065 Q 4.741875915527346 2.40268125 4.732500915527345 2.396353125 Q 4.723125915527346 2.390025 4.711407165527346 2.3853375 Q 4.699688415527346 2.38065 4.686329040527346 2.3778375 Q 4.672969665527345 2.375025 4.657969665527346 2.375025 Q 4.614375915527345 2.375025 4.593985290527345 2.391665625 Q 4.573594665527345 2.40830625 4.573594665527345 2.4369 Q 4.573594665527345 2.4565875 4.583204040527345 2.4678375 Q 4.5928134155273455 2.4790875 4.613438415527345 2.48611875 Q 4.634063415527345 2.49315 4.665938415527346 2.50065 Q 4.701563415527345 2.50815 4.727344665527346 2.5184625 Q 4.753125915527345 2.528775 4.767188415527346 2.546353125 Q 4.7812509155273455 2.56393125 4.7812509155273455 2.59393125 Q 4.7812509155273455 2.6169000000000002 4.772344665527346 2.633775 Q 4.763438415527346 2.65065 4.747500915527345 2.6619 Q 4.731563415527345 2.67315 4.709532165527346 2.678540625 Q 4.6875009155273455 2.68393125 4.661250915527345 2.68393125 Q 4.635469665527346 2.68393125 4.611797790527346 2.678540625 Q 4.588125915527345 2.67315 4.567032165527346 2.662603125 Q 4.5459384155273455 2.65205625 4.527657165527345 2.63565 L 4.544063415527345 2.60893125 Q 4.552969665527345 2.61830625 4.5653915405273455 2.626509375 Q 4.577813415527346 2.6347125 4.593047790527345 2.641275 Q 4.608282165527346 2.6478375 4.625860290527346 2.651353125 Q 4.643438415527346 2.65486875 4.662188415527345 2.65486875 Q 4.702032165527346 2.65486875 4.724297790527346 2.6403375 Q 4.746563415527346 2.62580625 4.746563415527346 2.5972125 Q 4.746563415527346 2.5765875 4.7353134155273455 2.5641656250000002 Q 4.724063415527345 2.55174375 4.701563415527345 2.543775 Q 4.679063415527345 2.53580625 4.646250915527346 2.52830625 Q 4.611563415527345 2.5203375 4.587657165527346 2.51049375 Q 4.563750915527345 2.50065 4.5517977905273455 2.484478125 Q 4.539844665527346 2.46830625 4.539844665527346 2.4415875 Q 4.539844665527346 2.41065 4.555079040527345 2.389321875 Q 4.5703134155273455 2.36799375 4.597032165527345 2.356978125 Q 4.623750915527346 2.3459625 4.658438415527345 2.3459625 Q 4.680469665527346 2.3459625 4.699454040527345 2.350415625 Q 4.718438415527346 2.35486875 4.734610290527345 2.36330625 Q 4.750782165527346 2.37174375 4.764844665527345 2.3844 L 4.748907165527346 2.41065 M 4.961717147827151 2.68580625 Q 4.93124839782715 2.68580625 4.907107772827151 2.66986875 Q 4.88296714782715 2.65393125 4.868904647827151 2.63049375 L 4.868904647827151 2.7809625 L 4.83702964782715 2.7809625 L 4.83702964782715 2.4369 L 4.86562339782715 2.4369 L 4.86562339782715 2.48424375 Q 4.88015464782715 2.461275 4.90452964782715 2.4469781250000002 Q 4.92890464782715 2.43268125 4.95656089782715 2.43268125 Q 4.98187339782715 2.43268125 5.0029671478271505 2.443228125 Q 5.02406089782715 2.453775 5.03952964782715 2.4715875 Q 5.05499839782715 2.4894 5.06367027282715 2.512134375 Q 5.07234214782715 2.5348687500000002 5.07234214782715 2.55924375 Q 5.07234214782715 2.5934625000000002 5.058514022827151 2.622290625 Q 5.044685897827151 2.65111875 5.01984214782715 2.6684625 Q 4.994998397827151 2.68580625 4.961717147827151 2.68580625 M 4.952810897827151 2.65768125 Q 4.97296714782715 2.65768125 4.98890464782715 2.649478125 Q 5.0048421478271505 2.641275 5.016326522827151 2.6272125 Q 5.02781089782715 2.61315 5.033904647827151 2.595571875 Q 5.0399983978271505 2.57799375 5.0399983978271505 2.55924375 Q 5.0399983978271505 2.53955625 5.0332015228271505 2.52174375 Q 5.0264046478271505 2.50393125 5.01374839782715 2.4903375 Q 5.00109214782715 2.47674375 4.98468589782715 2.468775 Q 4.96827964782715 2.46080625 4.949060897827151 2.46080625 Q 4.93687339782715 2.46080625 4.923748397827151 2.46549375 Q 4.91062339782715 2.47018125 4.89867027282715 2.478853125 Q 4.8867171478271505 2.487525 4.878748397827151 2.49830625 Q 4.870779647827151 2.5090875 4.868904647827151 2.521275 L 4.868904647827151 2.596275 Q 4.87640464782715 2.61361875 4.88906089782715 2.627446875 Q 4.90171714782715 2.641275 4.91835777282715 2.649478125 Q 4.93499839782715 2.65768125 4.952810897827151 2.65768125 M 5.252812957763674 2.465025 Q 5.220937957763674 2.4659625 5.196797332763674 2.4828375 Q 5.172656707763674 2.4997125000000002 5.162812957763674 2.52924375 L 5.162812957763674 2.68111875 L 5.130937957763674 2.68111875 L 5.130937957763674 2.4369 L 5.160937957763674 2.4369 L 5.160937957763674 2.49549375 Q 5.173594207763674 2.4697125 5.194453582763674 2.453775 Q 5.215312957763674 2.4378375 5.238750457763674 2.4359625 Q 5.243437957763674 2.43549375 5.246953582763674 2.43549375 Q 5.250469207763674 2.43549375 5.252812957763674 2.4359625 L 5.252812957763674 2.465025 M 5.3001628875732445 2.68111875 L 5.3001628875732445 2.4369 L 5.332037887573245 2.4369 L 5.332037887573245 2.68111875 L 5.3001628875732445 2.68111875 M 5.3001628875732445 2.38580625 L 5.3001628875732445 2.33893125 L 5.332037887573245 2.33893125 L 5.332037887573245 2.38580625 L 5.3001628875732445 2.38580625 M 5.612358627319338 2.68111875 L 5.580483627319339 2.68111875 L 5.580483627319339 2.5447125 Q 5.580483627319339 2.5015875 5.567827377319339 2.481665625 Q 5.555171127319339 2.46174375 5.527983627319339 2.46174375 Q 5.509233627319339 2.46174375 5.4909523773193385 2.470884375 Q 5.472671127319338 2.480025 5.458843002319338 2.495728125 Q 5.4450148773193385 2.5114312500000002 5.438921127319339 2.5315875 L 5.438921127319339 2.68111875 L 5.407046127319338 2.68111875 L 5.407046127319338 2.4369 L 5.436108627319339 2.4369 L 5.436108627319339 2.4922125 Q 5.445952377319339 2.4744 5.461889877319338 2.461040625 Q 5.477827377319338 2.44768125 5.497983627319338 2.44018125 Q 5.518139877319339 2.43268125 5.539702377319339 2.43268125 Q 5.559858627319338 2.43268125 5.5739211273193385 2.44018125 Q 5.587983627319338 2.44768125 5.5964211273193385 2.461509375 Q 5.604858627319339 2.4753375 5.608608627319338 2.494790625 Q 5.612358627319338 2.51424375 5.612358627319338 2.53815 L 5.612358627319338 2.68111875 M 5.782987289428713 2.6844 Q 5.758143539428714 2.6844 5.737049789428713 2.6740875 Q 5.715956039428714 2.663775 5.7007216644287135 2.646196875 Q 5.685487289428713 2.62861875 5.677049789428714 2.60611875 Q 5.668612289428713 2.58361875 5.668612289428713 2.5597125 Q 5.668612289428713 2.53393125 5.676815414428714 2.511196875 Q 5.685018539428714 2.4884625 5.700252914428714 2.47065 Q 5.715487289428713 2.4528375000000002 5.736112289428713 2.442759375 Q 5.756737289428713 2.43268125 5.782049789428713 2.43268125 Q 5.813456039428713 2.43268125 5.836659164428713 2.44861875 Q 5.859862289428714 2.4645562500000002 5.875799789428713 2.4879937500000002 L 5.875799789428713 2.4369 L 5.904393539428714 2.4369 L 5.904393539428714 2.68205625 Q 5.904393539428714 2.71580625 5.8882216644287135 2.739009375 Q 5.872049789428713 2.7622125 5.844627914428713 2.77393125 Q 5.817206039428713 2.78565 5.784862289428713 2.78565 Q 5.743143539428714 2.78565 5.7173622894287135 2.77065 Q 5.691581039428714 2.75565 5.675174789428714 2.7303375 L 5.6948622894287135 2.71486875 Q 5.709393539428714 2.7378375 5.733534164428714 2.7490875 Q 5.757674789428713 2.7603375 5.784862289428713 2.7603375 Q 5.808768539428714 2.7603375 5.8286904144287135 2.751665625 Q 5.848612289428713 2.74299375 5.860565414428714 2.72565 Q 5.872518539428714 2.70830625 5.872518539428714 2.68205625 L 5.872518539428714 2.633775 Q 5.858456039428714 2.65674375 5.834081039428714 2.670571875 Q 5.809706039428714 2.6844 5.782987289428713 2.6844 M 5.791893539428713 2.65768125 Q 5.806424789428713 2.65768125 5.819784164428714 2.652525 Q 5.833143539428714 2.64736875 5.844393539428713 2.638696875 Q 5.855643539428714 2.630025 5.863143539428713 2.61924375 Q 5.8706435394287135 2.6084625 5.872518539428714 2.5972125 L 5.872518539428714 2.52174375 Q 5.865487289428714 2.50393125 5.852362289428713 2.490103125 Q 5.839237289428714 2.4762750000000002 5.822596664428714 2.468540625 Q 5.805956039428714 2.46080625 5.788143539428714 2.46080625 Q 5.767518539428713 2.46080625 5.751346664428714 2.469478125 Q 5.735174789428713 2.47815 5.7241591644287135 2.492446875 Q 5.713143539428714 2.50674375 5.707049789428714 2.52455625 Q 5.700956039428713 2.54236875 5.700956039428713 2.56018125 Q 5.700956039428713 2.57986875 5.707987289428714 2.597446875 Q 5.715018539428714 2.615025 5.727440414428713 2.628853125 Q 5.7398622894287135 2.64268125 5.756502914428713 2.65018125 Q 5.773143539428713 2.65768125 5.791893539428713 2.65768125" fill="#80caff" fill-rule="nonzero"></path></g><g clip-path="url(&quot;#SvgjsClipPath1002&quot;)"><g clip-path="url(&quot;#SvgjsClipPath1000abdd0c94-1aab-4510-8ecb-151d4ac62a19&quot;)"><path d=" M 2.969778315403202 -1.9343241149590793 L 3.064541226925072 -2.029087026480949 L 3.4381969460017583 -1.6554313074042626 L 3.3434340344798885 -1.5606683958823928 Z" fill="#ffffff" transform="matrix(1,0,0,1,0,0)" fill-rule="nonzero"></path></g><g clip-path="url(&quot;#SvgjsClipPath1000abdd0c94-1aab-4510-8ecb-151d4ac62a19&quot;)"><path d=" M 3.414035832617092 -2.378685761046287 L 3.5087987441389608 -2.4734486725681566 L 3.882462614162794 -2.0997848025443235 L 3.787699702640924 -2.0050218910224538 Z" fill="#ffffff" transform="matrix(1,0,0,1,0,0)" fill-rule="nonzero"></path></g><g clip-path="url(&quot;#SvgjsClipPath1000abdd0c94-1aab-4510-8ecb-151d4ac62a19&quot;)"><path d=" M 3.6362604519593926 -2.6007608718334962 L 4.009856355771073 -2.2271649680218157 L 4.383567531382757 -1.8534537924101313 L 4.478320950985719 -1.9482072120130938 L 4.104609775374035 -2.321918387624778 L 3.7310138715623546 -2.6955142914364587 L 3.6362604519593926 -2.6007608718334962 Z" fill="#ffffff" transform="matrix(1,0,0,1,0,0)" fill-rule="nonzero"></path></g><g clip-path="url(&quot;#SvgjsClipPath1000abdd0c94-1aab-4510-8ecb-151d4ac62a19&quot;)"><path d=" M 2.969800785540655 -3.5032091534750744 L 3.3434516120071853 -3.8768860666009104 L 3.4382178313209524 -3.782126462986402 L 3.064567004854421 -3.408449549860566 Z" fill="#ffffff" transform="matrix(1,0,0,1,0,0)" fill-rule="nonzero"></path></g><g clip-path="url(&quot;#SvgjsClipPath1000abdd0c94-1aab-4510-8ecb-151d4ac62a19&quot;)"><path d=" M 3.1918633296472416 -3.281117115147291 L 3.9391992206420525 -4.028453006142103 L 4.033978434058215 -3.9336737927259398 L 3.2866425430634036 -3.186337901731128 Z" fill="#ffffff" transform="matrix(1,0,0,1,0,0)" fill-rule="nonzero"></path></g><g clip-path="url(&quot;#SvgjsClipPath1000abdd0c94-1aab-4510-8ecb-151d4ac62a19&quot;)"><path d=" M 3.414073071447641 -3.058943889670912 L 3.787736941471472 -3.4326077596947444 L 3.882499852993342 -3.3378448481728737 L 3.5088359829695106 -2.964180978149042 Z" fill="#ffffff" transform="matrix(1,0,0,1,0,0)" fill-rule="nonzero"></path></g><g clip-path="url(&quot;#SvgjsClipPath1000abdd0c94-1aab-4510-8ecb-151d4ac62a19&quot;)"><path d=" M 3.6362480475217804 -2.836855414748648 L 4.383538291711314 -3.5841717447439265 L 4.478294706054159 -3.489418637966189 L 3.731004461864626 -2.7421023079709106 Z" fill="#ffffff" transform="matrix(1,0,0,1,0,0)" fill-rule="nonzero"></path></g><g clip-path="url(&quot;#SvgjsClipPath1000abdd0c94-1aab-4510-8ecb-151d4ac62a19&quot;)"><path d=" M 2.50135582653913 -1.6554393294395413 L 2.8750180670814727 -2.0290885269367505 L 2.969779324664094 -1.9343239615044991 L 2.5961170841217527 -1.56067476400729 Z" fill="#ffffff" transform="matrix(1,0,0,1,0,0)" fill-rule="nonzero"></path></g><g clip-path="url(&quot;#SvgjsClipPath1000abdd0c94-1aab-4510-8ecb-151d4ac62a19&quot;)"><path d=" M 2.05706407156535 -2.0997268842878625 L 2.4307279415891827 -2.473390754311695 L 2.5254908531110534 -2.378627842789825 L 2.15182698308722 -2.004963972765992 Z" fill="#ffffff" transform="matrix(1,0,0,1,0,0)" fill-rule="nonzero"></path></g><g clip-path="url(&quot;#SvgjsClipPath1000abdd0c94-1aab-4510-8ecb-151d4ac62a19&quot;)"><path d=" M 2.3032804110777167 -2.6007608718334962 L 1.9296845072660362 -2.2271649680218157 L 1.555973331654352 -1.8534537924101313 L 1.4612199120513896 -1.9482072120130938 L 1.8349310876630736 -2.321918387624778 L 2.2085269914747543 -2.6955142914364587 L 2.3032804110777167 -2.6007608718334962 Z" fill="#ffffff" transform="matrix(1,0,0,1,0,0)" fill-rule="nonzero"></path></g><g clip-path="url(&quot;#SvgjsClipPath1000abdd0c94-1aab-4510-8ecb-151d4ac62a19&quot;)"><path d=" M 2.501336798865025 -3.782198495582322 L 2.596103018178791 -3.8769580991968295 L 2.969745693982703 -3.5032893373026566 L 2.8749794746689368 -3.408529733688149 Z" fill="#ffffff" transform="matrix(1,0,0,1,0,0)" fill-rule="nonzero"></path></g><g clip-path="url(&quot;#SvgjsClipPath1000abdd0c94-1aab-4510-8ecb-151d4ac62a19&quot;)"><path d=" M 1.905551538935286 -3.9336257585870538 L 2.000330752351448 -4.028404972003216 L 2.7476666433462595 -3.281069081008404 L 2.6528874299300975 -3.1862898675922415 Z" fill="#ffffff" transform="matrix(1,0,0,1,0,0)" fill-rule="nonzero"></path></g><g clip-path="url(&quot;#SvgjsClipPath1000abdd0c94-1aab-4510-8ecb-151d4ac62a19&quot;)"><path d=" M 3.191895303461018 -2.1564815748437467 L 3.28667451687718 -2.2512607882599096 L 4.034010407871992 -1.5039248972650974 L 3.9392311944558296 -1.409145683848935 Z" fill="#ffffff" transform="matrix(1,0,0,1,0,0)" fill-rule="nonzero"></path></g><g clip-path="url(&quot;#SvgjsClipPath1000abdd0c94-1aab-4510-8ecb-151d4ac62a19&quot;)"><path d=" M 1.9055326293147679 -1.5039229718462126 L 2.6528685203095796 -2.2512588628410244 L 2.7476477337257412 -2.156479649424862 L 2.0003118427309303 -1.4091437584300506 Z" fill="#ffffff" transform="matrix(1,0,0,1,0,0)" fill-rule="nonzero"></path></g><g clip-path="url(&quot;#SvgjsClipPath1000abdd0c94-1aab-4510-8ecb-151d4ac62a19&quot;)"><path d=" M 3.0645930142015194 -5.0928219161114106 L 2.9698395945985565 -4.9980684965084485 L 1.9055350651652812 -3.9336486952751692 L 1.8107816455623187 -4.028517386678136 L 2.8749709031955906 -5.0928219161114106 L 2.9698395945985565 -5.1875753357143735 L 3.0645930142015194 -5.0928219161114106 Z" fill="#ffffff" transform="matrix(1,0,0,1,0,0)" fill-rule="nonzero"></path></g><g clip-path="url(&quot;#SvgjsClipPath1000abdd0c94-1aab-4510-8ecb-151d4ac62a19&quot;)"><path d=" M 4.128782271834791 -4.028517386678136 L 4.034028852231828 -3.9336486952751692 L 2.9698395945985565 -4.9980684965084485 L 2.8749709031955906 -5.0928219161114106 L 2.9698395945985565 -5.1875753357143735 L 3.0645930142015194 -5.0928219161114106 L 4.128782271834791 -4.028517386678136 Z" fill="#ffffff" transform="matrix(1,0,0,1,0,0)" fill-rule="nonzero"></path></g><g clip-path="url(&quot;#SvgjsClipPath1000abdd0c94-1aab-4510-8ecb-151d4ac62a19&quot;)"><path d=" M 3.0645930142015194 -0.34475341960296113 L 2.9698395945985565 -0.43950683920592404 L 1.9055350651652812 -1.5039266404392029 L 1.8107816455623187 -1.4090579490362374 L 2.8749709031955906 -0.34475341960296113 L 2.9698395945985565 -0.2499999999999991 L 3.0645930142015194 -0.34475341960296113 Z" fill="#ffffff" transform="matrix(1,0,0,1,0,0)" fill-rule="nonzero"></path></g><g clip-path="url(&quot;#SvgjsClipPath1000abdd0c94-1aab-4510-8ecb-151d4ac62a19&quot;)"><path d=" M 4.128782271834791 -1.4090579490362374 L 4.034028852231828 -1.5039266404392029 L 2.9698395945985565 -0.43950683920592404 L 2.8749709031955906 -0.34475341960296113 L 2.9698395945985565 -0.2499999999999991 L 3.0645930142015194 -0.34475341960296113 L 4.128782271834791 -1.4090579490362374 Z" fill="#ffffff" transform="matrix(1,0,0,1,0,0)" fill-rule="nonzero"></path></g><g clip-path="url(&quot;#SvgjsClipPath1000abdd0c94-1aab-4510-8ecb-151d4ac62a19&quot;)"><path d=" M 2.0570388997816047 -3.3378906745364145 L 2.1518018113034745 -3.4326535860582843 L 2.5254656813273075 -3.0589897160344517 L 2.4307027698054378 -2.964226804512582 Z" fill="#ffffff" transform="matrix(1,0,0,1,0,0)" fill-rule="nonzero"></path></g><g clip-path="url(&quot;#SvgjsClipPath1000abdd0c94-1aab-4510-8ecb-151d4ac62a19&quot;)"><path d=" M 1.4612037820328094 -3.4894091911255596 L 1.555958542607533 -3.5841639517002832 L 2.3032618298137604 -2.836860664494056 L 2.208507069239036 -2.7421059039193323 Z" fill="#ffffff" transform="matrix(1,0,0,1,0,0)" fill-rule="nonzero"></path></g><g clip-path="url(&quot;#SvgjsClipPath1000abdd0c94-1aab-4510-8ecb-151d4ac62a19&quot;)"><path d=" M 2.9697704315185547 -2.099743520297831 L 2.3507262839592 -2.7187876678571863 L 2.9697704315185547 -3.337877924136542 L 3.5888030518979086 -2.7187876678571863 L 2.9697704315185547 -2.099743520297831 L 2.9697704315185547 -2.099743520297831 L 2.9697704315185547 -2.099743520297831 L 2.9697704315185547 -2.099743520297831 L 2.9697704315185547 -2.099743520297831 Z" fill="#80caff" transform="matrix(1,0,0,1,0,0)" fill-rule="nonzero"></path></g><g clip-path="url(&quot;#SvgjsClipPath1000abdd0c94-1aab-4510-8ecb-151d4ac62a19&quot;)"><path d=" M 4.273725033159323 -2.3946548934270524 L 3.9495807315491884 -2.718799195037187 L 4.273725033159323 -3.042966551007322 L 4.597869334769458 -2.718799195037187 L 4.273725033159323 -2.3946548934270524 L 4.273725033159323 -2.3946548934270524 L 4.273725033159323 -2.3946548934270524 L 4.273725033159323 -2.3946548934270524 L 4.273725033159323 -2.3946548934270524 Z" fill="#80caff" transform="matrix(1,0,0,1,0,0)" fill-rule="nonzero"></path></g><g clip-path="url(&quot;#SvgjsClipPath1000abdd0c94-1aab-4510-8ecb-151d4ac62a19&quot;)"><path d=" M 1.6658158298777863 -2.3946548934270524 L 1.9899601314879207 -2.718799195037187 L 1.6658158298777863 -3.042966551007322 L 1.341671528267652 -2.718799195037187 L 1.6658158298777863 -2.3946548934270524 L 1.6658158298777863 -2.3946548934270524 L 1.6658158298777863 -2.3946548934270524 L 1.6658158298777863 -2.3946548934270524 L 1.6658158298777863 -2.3946548934270524 Z" fill="#80caff" transform="matrix(1,0,0,1,0,0)" fill-rule="nonzero"></path></g><g clip-path="url(&quot;#SvgjsClipPath1000abdd0c94-1aab-4510-8ecb-151d4ac62a19&quot;)"><path d=" M 3.3060297993090675 -4.366517358648703 L 2.9697704315185547 -4.030246463678189 L 2.6335110637280414 -4.366517358648703 L 3.3060297993090675 -4.366517358648703 Z" fill="#80caff" transform="matrix(1,0,0,1,0,0)" fill-rule="nonzero"></path></g><g clip-path="url(&quot;#SvgjsClipPath1000abdd0c94-1aab-4510-8ecb-151d4ac62a19&quot;)"><path d=" M 3.3659941896709427 -4.142901593821712 L 2.969758904338554 -3.7466663084893232 L 2.573535146186166 -4.142901593821712 L 3.3659941896709427 -4.142901593821712 Z" fill="#80caff" transform="matrix(1,0,0,1,0,0)" fill-rule="nonzero"></path></g><g clip-path="url(&quot;#SvgjsClipPath1000abdd0c94-1aab-4510-8ecb-151d4ac62a19&quot;)"><path d=" M 3.3060297993090675 -1.0710579770656699 L 2.9697704315185547 -1.407317344856183 L 2.6335110637280414 -1.0710579770656699 L 3.3060297993090675 -1.0710579770656699 Z" fill="#80caff" transform="matrix(1,0,0,1,0,0)" fill-rule="nonzero"></path></g><g clip-path="url(&quot;#SvgjsClipPath1000abdd0c94-1aab-4510-8ecb-151d4ac62a19&quot;)"><path d=" M 3.3659941896709427 -1.294673741892661 L 2.969758904338554 -1.6909090272250493 L 2.573535146186166 -1.294673741892661 L 3.3659941896709427 -1.294673741892661 Z" fill="#80caff" transform="matrix(1,0,0,1,0,0)" fill-rule="nonzero"></path></g></g></g><defs><clipPath id="SvgjsClipPath1002"><path d=" M 1.341671528267652 -5.1875753357143735 h 3.2561978065018056 v 4.9375753357143735 h -3.2561978065018056 Z"></path></clipPath><clipPath id="SvgjsClipPath1000abdd0c94-1aab-4510-8ecb-151d4ac62a19"><path d=" M 1.341671528267652 -5.1875753357143735 L 4.597869334769458 -5.1875753357143735 L 4.597869334769458 -0.25 L 1.341671528267652 -0.25 Z"></path></clipPath></defs></svg>